# File created by Blade
# Date/Time:  Fri Jan 16 19:14:28 2015
# Frame Rate: 120.000 fps
#------------------------------------------------------
:FULLY-SPECIFIED
:DEGREES
233
root 19.345490 35.734693 -22.638869 -168.819313 -1.221961 -178.298416
Spine -26.897818 1.272433 -0.761083
Head 17.669196 -0.466844 -1.079294
LeftShoulder -13.834193 -62.929450 58.656272
LeftArm 49.693359 -20.509057 3.410662
LeftForeArm 0.133758 -0.000000 15.347158
LeftHand -0.587581 -0.000000 -24.387375
LeftHandThumb1 -26.253704 0.000000 33.147579
RightShoulder -8.438268 20.150644 -44.611364
RightArm 47.402331 50.180324 -14.834362
RightForeArm -52.565389 -0.000000 22.772261
RightHand -9.349983 -0.000000 8.704417
RightHandThumb1 -24.326973 -0.000000 -32.862282
LeftUpLeg -1.192301 7.156142 1.461648
LeftLeg -6.707392 -0.000000 0.000000
LeftFoot -21.098924 28.310736 -17.113291
LeftToeBase 23.638992 -0.000000 -0.000000
RightUpLeg -2.777827 -8.618307 1.812052
RightLeg -3.397519 -0.000000 0.000000
RightFoot -20.709953 -22.951239 20.491944
RightToeBase 22.382847 -0.000000 -0.000000
234
root 19.341131 35.734272 -22.640289 -168.768825 -1.207202 -178.294774
Spine -26.926780 1.256612 -0.789589
Head 17.566060 -0.370168 -0.929662
LeftShoulder -13.970955 -63.061582 59.076473
LeftArm 49.457641 -20.577548 3.580917
LeftForeArm 0.258601 0.000000 15.265074
LeftHand -0.528340 -0.000000 -24.310082
LeftHandThumb1 -26.253704 0.000000 33.147579
RightShoulder -8.501133 20.157176 -44.612165
RightArm 46.979966 50.207387 -15.248695
RightForeArm -52.195398 -0.000000 22.365726
RightHand -9.123375 -0.000000 8.683907
RightHandThumb1 -24.326973 -0.000000 -32.862282
LeftUpLeg -1.231272 7.172084 1.452108
LeftLeg -6.718434 -0.000000 0.000000
LeftFoot -21.088317 28.295154 -17.104370
LeftToeBase 23.585339 -0.000000 -0.000000
RightUpLeg -2.820705 -8.611081 1.815811
RightLeg -3.414498 -0.000000 0.000000
RightFoot -20.701793 -22.948780 20.519199
RightToeBase 22.326693 -0.000000 -0.000000
235
root 19.337380 35.734016 -22.643200 -168.733416 -1.204604 -178.288993
Spine -26.940986 1.227367 -0.810792
Head 17.491544 -0.300936 -0.794493
LeftShoulder -14.088168 -63.169434 59.434641
LeftArm 49.292615 -20.658152 3.770550
LeftForeArm 0.389730 -0.000000 15.154982
LeftHand -0.638782 -0.000000 -24.272497
LeftHandThumb1 -26.253704 0.000000 33.147579
RightShoulder -8.549451 20.186834 -44.617269
RightArm 46.540563 50.198751 -15.658789
RightForeArm -52.049436 -0.000000 21.963275
RightHand -9.110822 -0.000000 8.739181
RightHandThumb1 -24.326973 -0.000000 -32.862282
LeftUpLeg -1.244813 7.169888 1.448296
LeftLeg -6.750632 -0.000000 0.000000
LeftFoot -21.084636 28.297306 -17.119849
LeftToeBase 23.567739 -0.000000 -0.000000
RightUpLeg -2.844295 -8.627980 1.822161
RightLeg -3.430913 -0.000000 0.000000
RightFoot -20.700271 -22.938041 20.545269
RightToeBase 22.376160 -0.000000 -0.000000
236
root 19.333066 35.734383 -22.645823 -168.705557 -1.201381 -178.278766
Spine -26.947146 1.194121 -0.809158
Head 17.431265 -0.219869 -0.692480
LeftShoulder -14.216309 -63.309836 59.788878
LeftArm 49.132333 -20.709930 3.981576
LeftForeArm 0.471848 -0.000000 15.000977
LeftHand -0.429087 0.000000 -23.829815
LeftHandThumb1 -26.253704 0.000000 33.147579
RightShoulder -8.597669 20.242048 -44.630837
RightArm 46.152748 50.186805 -16.058380
RightForeArm -51.662403 0.000000 21.521689
RightHand -9.071208 -0.000000 8.942919
RightHandThumb1 -24.326973 -0.000000 -32.862282
LeftUpLeg -1.252395 7.190738 1.445991
LeftLeg -6.782288 -0.000000 0.000000
LeftFoot -21.065143 28.296025 -17.091717
LeftToeBase 23.602139 -0.000000 -0.000000
RightUpLeg -2.853029 -8.634583 1.824891
RightLeg -3.456634 -0.000000 0.000000
RightFoot -20.650114 -22.916930 20.533331
RightToeBase 22.311743 -0.000000 -0.000000
237
root 19.329077 35.734802 -22.647036 -168.662657 -1.182054 -178.265190
Spine -26.973006 1.196904 -0.812847
Head 17.355967 -0.205360 -0.615478
LeftShoulder -14.284551 -63.472784 60.077817
LeftArm 48.967407 -20.789565 4.175589
LeftForeArm 0.418393 0.000000 14.882464
LeftHand -0.367427 -0.000000 -23.646725
LeftHandThumb1 -26.253704 0.000000 33.147579
RightShoulder -8.638450 20.285857 -44.661969
RightArm 45.695047 50.141542 -16.499636
RightForeArm -51.657411 -0.000000 21.057308
RightHand -8.988820 0.000000 8.966600
RightHandThumb1 -24.326973 -0.000000 -32.862282
LeftUpLeg -1.277613 7.221687 1.444094
LeftLeg -6.806395 -0.000000 0.000000
LeftFoot -21.056430 28.287700 -17.093285
LeftToeBase 23.632796 -0.000000 -0.000000
RightUpLeg -2.891257 -8.614368 1.834630
RightLeg -3.466640 -0.000000 0.000000
RightFoot -20.640324 -22.911362 20.558392
RightToeBase 22.310543 -0.000000 -0.000000
238
root 19.324198 35.734674 -22.649197 -168.612830 -1.180486 -178.248959
Spine -26.993843 1.176670 -0.798287
Head 17.273000 -0.177962 -0.563232
LeftShoulder -14.463536 -63.601453 60.463284
LeftArm 48.806150 -20.930342 4.263165
LeftForeArm 0.529871 -0.000000 14.851046
LeftHand -0.413658 0.000000 -23.506777
LeftHandThumb1 -26.253704 0.000000 33.147579
RightShoulder -8.714214 20.315233 -44.731688
RightArm 45.348793 50.228265 -16.730870
RightForeArm -51.998369 -0.000000 20.773442
RightHand -8.905275 -0.000000 9.310447
RightHandThumb1 -24.326973 -0.000000 -32.862282
LeftUpLeg -1.305410 7.219296 1.443313
LeftLeg -6.850862 -0.000000 0.000000
LeftFoot -21.050364 28.327657 -17.098688
LeftToeBase 23.607933 -0.000000 -0.000000
RightUpLeg -2.932424 -8.609545 1.849487
RightLeg -3.479085 -0.000000 0.000000
RightFoot -20.623828 -22.899525 20.576801
RightToeBase 22.316802 -0.000000 -0.000000
